# xmcd CD database file
#
# Track frame offsets:
#	150
#	1642
#	20680
#	44982
#	65555
#	68312
#	91107
#	119865
#	139415
#	154692
#	172715
#	185032
#	210520
#	234752
#	260025
#	278217
#
# Disc length: 3983 seconds
#
# Revision: 1
# Processed by: cddbd v1.5.1PL0 Copyright (c) Steve Scherf et al.
# Submitted via: CDex 1.51
#
DISCID=de0f8d10
DTITLE=THE HEADHUNTERS - Evolution Revolution
DYEAR=2003
DGENRE=Jazz+Funk
TTITLE0=Hindewhu For You
TTITLE1=Slick It
TTITLE2=God Make Me Funky
TTITLE3=Headhunting
TTITLE4=Bpm
TTITLE5=Everything
TTITLE6=Loft Funk
TTITLE7=On The Shores Of Amore
TTITLE8=Take No Prizzonerz
TTITLE9=Gotta Be Strong
TTITLE10=Woody Shaw
TTITLE11=Fonkyfried (If The Bluenotes Don't Gitcha)
TTITLE12=Martell On The Rocks
TTITLE13=Nutcracker
TTITLE14=Yekola
TTITLE15=Evolution Revolution
EXTD=YEAR: 2003
EXTT0=
EXTT1=
EXTT2=
EXTT3=
EXTT4=
EXTT5=
EXTT6=
EXTT7=
EXTT8=
EXTT9=
EXTT10=
EXTT11=
EXTT12=
EXTT13=
EXTT14=
EXTT15=
PLAYORDER=
